# xmcd
#
# Track frame offsets:
#	150
#	17119
#	34376
#	52421
#	74784
#	94218
#	112131
#	129521
#	142870
#	157519
#	180299
#	208872
#	237396
#	253552
#	280750
#	301406
#	321598
#
# Disc length: 4666 seconds
#
# Revision: 0
# Processed by: cddbd v1.5.2PL0 Copyright (c) Steve Scherf et al.
# Submitted via: EasyCDDAExtractor 12.0.4.1
#
DISCID=00123811
DTITLE=Jimmy Thackery - Lickin' Gravy
DYEAR=2003
DGENRE=Blues
TTITLE0=Cool Guitars
TTITLE1=Travellin' Riverside Blues
TTITLE2=Dancing On Broken Glass
TTITLE3=Love To Ride
TTITLE4=Hundreds Into Ones
TTITLE5=Apache
TTITLE6=Boogie Woogie Man From Tennessee
TTITLE7=Partners In Crime
TTITLE8=Ain't Broke
TTITLE9=Chained In The Blues Lane
TTITLE10=Jitterbug Swing
TTITLE11=Lickin' Gravy
TTITLE12=Long, Lean and Lanky
TTITLE13=Red House
TTITLE14=Blues For Sale
TTITLE15=Bone Pickin'
TTITLE16=Bad Luck Blues
EXTD=
EXTT0=
EXTT1=
EXTT2=
EXTT3=
EXTT4=
EXTT5=
EXTT6=
EXTT7=
EXTT8=
EXTT9=
EXTT10=
EXTT11=
EXTT12=
EXTT13=
EXTT14=
EXTT15=
EXTT16=
PLAYORDER=
